<?xml version="1.0" encoding="UTF-8" standalone="no"?>
<!DOCTYPE svg PUBLIC "-//W3C//DTD SVG 1.1//EN"
 "http://www.w3.org/Graphics/SVG/1.1/DTD/svg11.dtd">
<!-- Generated by graphviz version 2.38.0 (20140413.2041)
 -->
<!-- Title: G Pages: 1 -->
<svg width="656pt" height="994pt"
 viewBox="0.00 0.00 656.00 994.00" xmlns="http://www.w3.org/2000/svg" xmlns:xlink="http://www.w3.org/1999/xlink">
<g id="graph0" class="graph" transform="scale(1 1) rotate(0) translate(4 990)">
<title>G</title>
<polygon fill="white" stroke="none" points="-4,4 -4,-990 652,-990 652,4 -4,4"/>
<g id="clust1" class="cluster"><title>cluster_embedding</title>
<polygon fill="none" stroke="red" points="146,-723 146,-942 272,-942 272,-723 146,-723"/>
<text text-anchor="middle" x="209" y="-926.8" font-family="Times,serif" font-size="14.00">shared layers</text>
</g>
<g id="clust2" class="cluster"><title>cluster_supervised</title>
<polygon fill="none" stroke="red" points="8,-64 8,-715 206,-715 206,-64 8,-64"/>
<text text-anchor="middle" x="107" y="-699.8" font-family="Times,serif" font-size="14.00">labeled data</text>
</g>
<g id="clust3" class="cluster"><title>cluster_unsupervised</title>
<polygon fill="none" stroke="red" points="214,-64 214,-715 640,-715 640,-64 214,-64"/>
<text text-anchor="middle" x="427" y="-699.8" font-family="Times,serif" font-size="14.00">unlabeled embedding space: neighbor and random</text>
</g>
<!-- convolutional_a1 -->
<g id="node1" class="node"><title>convolutional_a1</title>
<polygon fill="none" stroke="black" points="264,-911 154,-911 154,-875 264,-875 264,-911"/>
<text text-anchor="middle" x="209" y="-889.3" font-family="Times,serif" font-size="14.00">convolutional_a1</text>
</g>
<!-- activation_a1 -->
<g id="node2" class="node"><title>activation_a1</title>
<polygon fill="none" stroke="black" points="253.5,-839 164.5,-839 164.5,-803 253.5,-803 253.5,-839"/>
<text text-anchor="middle" x="209" y="-817.3" font-family="Times,serif" font-size="14.00">activation_a1</text>
</g>
<!-- convolutional_a1&#45;&gt;activation_a1 -->
<g id="edge1" class="edge"><title>convolutional_a1&#45;&gt;activation_a1</title>
<path fill="none" stroke="black" d="M209,-874.697C209,-866.983 209,-857.712 209,-849.112"/>
<polygon fill="black" stroke="black" points="212.5,-849.104 209,-839.104 205.5,-849.104 212.5,-849.104"/>
</g>
<!-- maxpooling_a1 -->
<g id="node3" class="node"><title>maxpooling_a1</title>
<polygon fill="none" stroke="black" points="259.5,-767 158.5,-767 158.5,-731 259.5,-731 259.5,-767"/>
<text text-anchor="middle" x="209" y="-745.3" font-family="Times,serif" font-size="14.00">maxpooling_a1</text>
</g>
<!-- activation_a1&#45;&gt;maxpooling_a1 -->
<g id="edge2" class="edge"><title>activation_a1&#45;&gt;maxpooling_a1</title>
<path fill="none" stroke="black" d="M209,-802.697C209,-794.983 209,-785.712 209,-777.112"/>
<polygon fill="black" stroke="black" points="212.5,-777.104 209,-767.104 205.5,-777.104 212.5,-777.104"/>
</g>
<!-- convolutional_b1 -->
<g id="node4" class="node"><title>convolutional_b1</title>
<polygon fill="none" stroke="black" points="196.5,-684 85.5,-684 85.5,-648 196.5,-648 196.5,-684"/>
<text text-anchor="middle" x="141" y="-662.3" font-family="Times,serif" font-size="14.00">convolutional_b1</text>
</g>
<!-- maxpooling_a1&#45;&gt;convolutional_b1 -->
<g id="edge21" class="edge"><title>maxpooling_a1&#45;&gt;convolutional_b1</title>
<path fill="none" stroke="black" d="M194.579,-730.822C185.113,-719.546 172.575,-704.611 162.008,-692.024"/>
<polygon fill="black" stroke="black" points="164.511,-689.562 155.4,-684.153 159.149,-694.063 164.511,-689.562"/>
</g>
<!-- convolutional_c1 -->
<g id="node13" class="node"><title>convolutional_c1</title>
<polygon fill="none" stroke="black" points="333,-684 223,-684 223,-648 333,-648 333,-684"/>
<text text-anchor="middle" x="278" y="-662.3" font-family="Times,serif" font-size="14.00">convolutional_c1</text>
</g>
<!-- maxpooling_a1&#45;&gt;convolutional_c1 -->
<g id="edge22" class="edge"><title>maxpooling_a1&#45;&gt;convolutional_c1</title>
<path fill="none" stroke="black" d="M223.633,-730.822C233.239,-719.546 245.961,-704.611 256.683,-692.024"/>
<polygon fill="black" stroke="black" points="259.568,-694.035 263.388,-684.153 254.239,-689.496 259.568,-694.035"/>
</g>
<!-- activation_b1 -->
<g id="node5" class="node"><title>activation_b1</title>
<polygon fill="none" stroke="black" points="177,-612 87,-612 87,-576 177,-576 177,-612"/>
<text text-anchor="middle" x="132" y="-590.3" font-family="Times,serif" font-size="14.00">activation_b1</text>
</g>
<!-- convolutional_b1&#45;&gt;activation_b1 -->
<g id="edge3" class="edge"><title>convolutional_b1&#45;&gt;activation_b1</title>
<path fill="none" stroke="black" d="M138.775,-647.697C137.783,-639.983 136.592,-630.712 135.486,-622.112"/>
<polygon fill="black" stroke="black" points="138.946,-621.576 134.199,-612.104 132.003,-622.469 138.946,-621.576"/>
</g>
<!-- maxpooling_b1 -->
<g id="node6" class="node"><title>maxpooling_b1</title>
<polygon fill="none" stroke="black" points="166,-540 64,-540 64,-504 166,-504 166,-540"/>
<text text-anchor="middle" x="115" y="-518.3" font-family="Times,serif" font-size="14.00">maxpooling_b1</text>
</g>
<!-- activation_b1&#45;&gt;maxpooling_b1 -->
<g id="edge4" class="edge"><title>activation_b1&#45;&gt;maxpooling_b1</title>
<path fill="none" stroke="black" d="M127.798,-575.697C125.904,-567.898 123.623,-558.509 121.516,-549.829"/>
<polygon fill="black" stroke="black" points="124.915,-548.996 119.154,-540.104 118.113,-550.648 124.915,-548.996"/>
</g>
<!-- flatten_b1 -->
<g id="node7" class="node"><title>flatten_b1</title>
<polygon fill="none" stroke="black" points="149.5,-468 78.5,-468 78.5,-432 149.5,-432 149.5,-468"/>
<text text-anchor="middle" x="114" y="-446.3" font-family="Times,serif" font-size="14.00">flatten_b1</text>
</g>
<!-- maxpooling_b1&#45;&gt;flatten_b1 -->
<g id="edge5" class="edge"><title>maxpooling_b1&#45;&gt;flatten_b1</title>
<path fill="none" stroke="black" d="M114.753,-503.697C114.643,-495.983 114.51,-486.712 114.387,-478.112"/>
<polygon fill="black" stroke="black" points="117.887,-478.053 114.244,-468.104 110.888,-478.153 117.887,-478.053"/>
</g>
<!-- dense_b1 -->
<g id="node8" class="node"><title>dense_b1</title>
<polygon fill="none" stroke="black" points="144,-396 76,-396 76,-360 144,-360 144,-396"/>
<text text-anchor="middle" x="110" y="-374.3" font-family="Times,serif" font-size="14.00">dense_b1</text>
</g>
<!-- flatten_b1&#45;&gt;dense_b1 -->
<g id="edge6" class="edge"><title>flatten_b1&#45;&gt;dense_b1</title>
<path fill="none" stroke="black" d="M113.011,-431.697C112.57,-423.983 112.041,-414.712 111.549,-406.112"/>
<polygon fill="black" stroke="black" points="115.042,-405.888 110.977,-396.104 108.054,-406.288 115.042,-405.888"/>
</g>
<!-- activation_b2 -->
<g id="node9" class="node"><title>activation_b2</title>
<polygon fill="none" stroke="black" points="153,-324 63,-324 63,-288 153,-288 153,-324"/>
<text text-anchor="middle" x="108" y="-302.3" font-family="Times,serif" font-size="14.00">activation_b2</text>
</g>
<!-- dense_b1&#45;&gt;activation_b2 -->
<g id="edge7" class="edge"><title>dense_b1&#45;&gt;activation_b2</title>
<path fill="none" stroke="black" d="M109.506,-359.697C109.285,-351.983 109.02,-342.712 108.775,-334.112"/>
<polygon fill="black" stroke="black" points="112.273,-334 108.489,-324.104 105.276,-334.2 112.273,-334"/>
</g>
<!-- dense_b2 -->
<g id="node10" class="node"><title>dense_b2</title>
<polygon fill="none" stroke="black" points="142,-252 74,-252 74,-216 142,-216 142,-252"/>
<text text-anchor="middle" x="108" y="-230.3" font-family="Times,serif" font-size="14.00">dense_b2</text>
</g>
<!-- activation_b2&#45;&gt;dense_b2 -->
<g id="edge8" class="edge"><title>activation_b2&#45;&gt;dense_b2</title>
<path fill="none" stroke="black" d="M108,-287.697C108,-279.983 108,-270.712 108,-262.112"/>
<polygon fill="black" stroke="black" points="111.5,-262.104 108,-252.104 104.5,-262.104 111.5,-262.104"/>
</g>
<!-- softmax_b1 -->
<g id="node11" class="node"><title>softmax_b1</title>
<polygon fill="none" stroke="black" points="147.5,-180 66.5,-180 66.5,-144 147.5,-144 147.5,-180"/>
<text text-anchor="middle" x="107" y="-158.3" font-family="Times,serif" font-size="14.00">softmax_b1</text>
</g>
<!-- dense_b2&#45;&gt;softmax_b1 -->
<g id="edge9" class="edge"><title>dense_b2&#45;&gt;softmax_b1</title>
<path fill="none" stroke="black" d="M107.753,-215.697C107.643,-207.983 107.51,-198.712 107.387,-190.112"/>
<polygon fill="black" stroke="black" points="110.887,-190.053 107.244,-180.104 103.888,-190.153 110.887,-190.053"/>
</g>
<!-- absolute quadratic loss -->
<g id="node12" class="node"><title>absolute quadratic loss</title>
<ellipse fill="none" stroke="black" cx="107" cy="-90" rx="90.9839" ry="18"/>
<text text-anchor="middle" x="107" y="-86.3" font-family="Times,serif" font-size="14.00">absolute quadratic loss</text>
</g>
<!-- softmax_b1&#45;&gt;absolute quadratic loss -->
<g id="edge10" class="edge"><title>softmax_b1&#45;&gt;absolute quadratic loss</title>
<path fill="none" stroke="black" d="M107,-143.697C107,-135.983 107,-126.712 107,-118.112"/>
<polygon fill="black" stroke="black" points="110.5,-118.104 107,-108.104 103.5,-118.104 110.5,-118.104"/>
</g>
<!-- loss -->
<g id="node24" class="node"><title>loss</title>
<polygon fill="none" stroke="black" points="349,-36 295,-36 295,-0 349,-0 349,-36"/>
<text text-anchor="middle" x="322" y="-14.3" font-family="Times,serif" font-size="14.00">loss</text>
</g>
<!-- absolute quadratic loss&#45;&gt;loss -->
<g id="edge25" class="edge"><title>absolute quadratic loss&#45;&gt;loss</title>
<path fill="none" stroke="black" d="M152.071,-74.3257C191.577,-61.4633 248.297,-42.9962 285.145,-30.9993"/>
<polygon fill="black" stroke="black" points="286.555,-34.2211 294.98,-27.7972 284.388,-27.565 286.555,-34.2211"/>
</g>
<!-- activation_c1 -->
<g id="node14" class="node"><title>activation_c1</title>
<polygon fill="none" stroke="black" points="333.5,-612 244.5,-612 244.5,-576 333.5,-576 333.5,-612"/>
<text text-anchor="middle" x="289" y="-590.3" font-family="Times,serif" font-size="14.00">activation_c1</text>
</g>
<!-- convolutional_c1&#45;&gt;activation_c1 -->
<g id="edge11" class="edge"><title>convolutional_c1&#45;&gt;activation_c1</title>
<path fill="none" stroke="black" d="M280.719,-647.697C281.931,-639.983 283.388,-630.712 284.739,-622.112"/>
<polygon fill="black" stroke="black" points="288.217,-622.526 286.312,-612.104 281.302,-621.44 288.217,-622.526"/>
</g>
<!-- maxpooling_c1 -->
<g id="node15" class="node"><title>maxpooling_c1</title>
<polygon fill="none" stroke="black" points="361.5,-540 260.5,-540 260.5,-504 361.5,-504 361.5,-540"/>
<text text-anchor="middle" x="311" y="-518.3" font-family="Times,serif" font-size="14.00">maxpooling_c1</text>
</g>
<!-- activation_c1&#45;&gt;maxpooling_c1 -->
<g id="edge12" class="edge"><title>activation_c1&#45;&gt;maxpooling_c1</title>
<path fill="none" stroke="black" d="M294.438,-575.697C296.889,-567.898 299.84,-558.509 302.568,-549.829"/>
<polygon fill="black" stroke="black" points="305.965,-550.694 305.624,-540.104 299.287,-548.595 305.965,-550.694"/>
</g>
<!-- flatten_c1 -->
<g id="node16" class="node"><title>flatten_c1</title>
<polygon fill="none" stroke="black" points="349.5,-468 278.5,-468 278.5,-432 349.5,-432 349.5,-468"/>
<text text-anchor="middle" x="314" y="-446.3" font-family="Times,serif" font-size="14.00">flatten_c1</text>
</g>
<!-- maxpooling_c1&#45;&gt;flatten_c1 -->
<g id="edge13" class="edge"><title>maxpooling_c1&#45;&gt;flatten_c1</title>
<path fill="none" stroke="black" d="M311.742,-503.697C312.072,-495.983 312.469,-486.712 312.838,-478.112"/>
<polygon fill="black" stroke="black" points="316.335,-478.245 313.267,-468.104 309.342,-477.945 316.335,-478.245"/>
</g>
<!-- dense_c1 -->
<g id="node17" class="node"><title>dense_c1</title>
<polygon fill="none" stroke="black" points="348.5,-396 281.5,-396 281.5,-360 348.5,-360 348.5,-396"/>
<text text-anchor="middle" x="315" y="-374.3" font-family="Times,serif" font-size="14.00">dense_c1</text>
</g>
<!-- flatten_c1&#45;&gt;dense_c1 -->
<g id="edge14" class="edge"><title>flatten_c1&#45;&gt;dense_c1</title>
<path fill="none" stroke="black" d="M314.247,-431.697C314.357,-423.983 314.49,-414.712 314.613,-406.112"/>
<polygon fill="black" stroke="black" points="318.112,-406.153 314.756,-396.104 311.113,-406.053 318.112,-406.153"/>
</g>
<!-- activation_c2 -->
<g id="node18" class="node"><title>activation_c2</title>
<polygon fill="none" stroke="black" points="365.5,-324 276.5,-324 276.5,-288 365.5,-288 365.5,-324"/>
<text text-anchor="middle" x="321" y="-302.3" font-family="Times,serif" font-size="14.00">activation_c2</text>
</g>
<!-- dense_c1&#45;&gt;activation_c2 -->
<g id="edge15" class="edge"><title>dense_c1&#45;&gt;activation_c2</title>
<path fill="none" stroke="black" d="M316.483,-359.697C317.144,-351.983 317.939,-342.712 318.676,-334.112"/>
<polygon fill="black" stroke="black" points="322.167,-334.367 319.534,-324.104 315.193,-333.769 322.167,-334.367"/>
</g>
<!-- dense_c2 -->
<g id="node19" class="node"><title>dense_c2</title>
<polygon fill="none" stroke="black" points="354.5,-252 287.5,-252 287.5,-216 354.5,-216 354.5,-252"/>
<text text-anchor="middle" x="321" y="-230.3" font-family="Times,serif" font-size="14.00">dense_c2</text>
</g>
<!-- activation_c2&#45;&gt;dense_c2 -->
<g id="edge16" class="edge"><title>activation_c2&#45;&gt;dense_c2</title>
<path fill="none" stroke="black" d="M321,-287.697C321,-279.983 321,-270.712 321,-262.112"/>
<polygon fill="black" stroke="black" points="324.5,-262.104 321,-252.104 317.5,-262.104 324.5,-262.104"/>
</g>
<!-- softmax_c1 -->
<g id="node20" class="node"><title>softmax_c1</title>
<polygon fill="none" stroke="black" points="362,-180 282,-180 282,-144 362,-144 362,-180"/>
<text text-anchor="middle" x="322" y="-158.3" font-family="Times,serif" font-size="14.00">softmax_c1</text>
</g>
<!-- dense_c2&#45;&gt;softmax_c1 -->
<g id="edge17" class="edge"><title>dense_c2&#45;&gt;softmax_c1</title>
<path fill="none" stroke="black" d="M321.247,-215.697C321.357,-207.983 321.49,-198.712 321.613,-190.112"/>
<polygon fill="black" stroke="black" points="325.112,-190.153 321.756,-180.104 318.113,-190.053 325.112,-190.153"/>
</g>
<!-- Laplacian Eigenmap loss -->
<g id="node21" class="node"><title>Laplacian Eigenmap loss</title>
<ellipse fill="none" stroke="black" cx="322" cy="-90" rx="100.182" ry="18"/>
<text text-anchor="middle" x="322" y="-86.3" font-family="Times,serif" font-size="14.00">Laplacian Eigenmap loss</text>
</g>
<!-- softmax_c1&#45;&gt;Laplacian Eigenmap loss -->
<g id="edge18" class="edge"><title>softmax_c1&#45;&gt;Laplacian Eigenmap loss</title>
<path fill="none" stroke="black" d="M322,-143.697C322,-135.983 322,-126.712 322,-118.112"/>
<polygon fill="black" stroke="black" points="325.5,-118.104 322,-108.104 318.5,-118.104 325.5,-118.104"/>
</g>
<!-- S3 Vector Machine loss -->
<g id="node22" class="node"><title>S3 Vector Machine loss</title>
<ellipse fill="none" stroke="black" cx="536" cy="-90" rx="96.3833" ry="18"/>
<text text-anchor="middle" x="536" y="-86.3" font-family="Times,serif" font-size="14.00">S3 Vector Machine loss</text>
</g>
<!-- softmax_c1&#45;&gt;S3 Vector Machine loss -->
<g id="edge19" class="edge"><title>softmax_c1&#45;&gt;S3 Vector Machine loss</title>
<path fill="none" stroke="black" d="M362.001,-147.916C395.427,-136.982 443.451,-121.273 480.581,-109.128"/>
<polygon fill="black" stroke="black" points="481.84,-112.398 490.256,-105.963 479.664,-105.745 481.84,-112.398"/>
</g>
<!-- Laplacian Eigenmap loss&#45;&gt;loss -->
<g id="edge23" class="edge"><title>Laplacian Eigenmap loss&#45;&gt;loss</title>
<path fill="none" stroke="black" d="M322,-71.6966C322,-63.9827 322,-54.7125 322,-46.1124"/>
<polygon fill="black" stroke="black" points="325.5,-46.1043 322,-36.1043 318.5,-46.1044 325.5,-46.1043"/>
</g>
<!-- S3 Vector Machine loss&#45;&gt;loss -->
<g id="edge24" class="edge"><title>S3 Vector Machine loss&#45;&gt;loss</title>
<path fill="none" stroke="black" d="M490.354,-74.0691C451.195,-61.26 395.477,-43.0345 359.036,-31.1146"/>
<polygon fill="black" stroke="black" points="359.892,-27.712 349.299,-27.9296 357.715,-34.3651 359.892,-27.712"/>
</g>
<!-- input -->
<g id="node23" class="node"><title>input</title>
<polygon fill="none" stroke="black" points="236,-986 182,-986 182,-950 236,-950 236,-986"/>
<text text-anchor="middle" x="209" y="-964.3" font-family="Times,serif" font-size="14.00">input</text>
</g>
<!-- input&#45;&gt;convolutional_a1 -->
<g id="edge20" class="edge"><title>input&#45;&gt;convolutional_a1</title>
<path fill="none" stroke="black" d="M209,-949.7C209,-941.245 209,-930.869 209,-921.373"/>
<polygon fill="black" stroke="black" points="212.5,-921.176 209,-911.176 205.5,-921.176 212.5,-921.176"/>
</g>
</g>
</svg>
