<?xml version="1.0" encoding="UTF-8" standalone="no"?>
<!DOCTYPE svg PUBLIC "-//W3C//DTD SVG 1.1//EN"
 "http://www.w3.org/Graphics/SVG/1.1/DTD/svg11.dtd">
<!-- Generated by graphviz version 2.38.0 (20140413.2041)
 -->
<!-- Title: G Pages: 1 -->
<svg width="656pt" height="994pt"
 viewBox="0.00 0.00 656.00 994.00" xmlns="http://www.w3.org/2000/svg" xmlns:xlink="http://www.w3.org/1999/xlink">
<g id="graph0" class="graph" transform="scale(1 1) rotate(0) translate(4 990)">
<title>G</title>
<polygon fill="white" stroke="none" points="-4,4 -4,-990 652,-990 652,4 -4,4"/>
<g id="clust1" class="cluster"><title>cluster_embedding</title>
<polygon fill="none" stroke="red" points="255,-147 255,-942 381,-942 381,-147 255,-147"/>
<text text-anchor="middle" x="318" y="-926.8" font-family="Times,serif" font-size="14.00">embedding space</text>
</g>
<g id="clust2" class="cluster"><title>cluster_supervised</title>
<polygon fill="none" stroke="red" points="8,-64 8,-139 206,-139 206,-64 8,-64"/>
<text text-anchor="middle" x="107" y="-123.8" font-family="Times,serif" font-size="14.00">labeled data</text>
</g>
<g id="clust3" class="cluster"><title>cluster_unsupervised</title>
<polygon fill="none" stroke="red" points="214,-64 214,-139 640,-139 640,-64 214,-64"/>
<text text-anchor="middle" x="427" y="-123.8" font-family="Times,serif" font-size="14.00">unlabeled data: neighbor and random</text>
</g>
<!-- convolutional_a1 -->
<g id="node1" class="node"><title>convolutional_a1</title>
<polygon fill="none" stroke="black" points="373,-911 263,-911 263,-875 373,-875 373,-911"/>
<text text-anchor="middle" x="318" y="-889.3" font-family="Times,serif" font-size="14.00">convolutional_a1</text>
</g>
<!-- activation_a1 -->
<g id="node2" class="node"><title>activation_a1</title>
<polygon fill="none" stroke="black" points="362.5,-839 273.5,-839 273.5,-803 362.5,-803 362.5,-839"/>
<text text-anchor="middle" x="318" y="-817.3" font-family="Times,serif" font-size="14.00">activation_a1</text>
</g>
<!-- convolutional_a1&#45;&gt;activation_a1 -->
<g id="edge1" class="edge"><title>convolutional_a1&#45;&gt;activation_a1</title>
<path fill="none" stroke="black" d="M318,-874.697C318,-866.983 318,-857.712 318,-849.112"/>
<polygon fill="black" stroke="black" points="321.5,-849.104 318,-839.104 314.5,-849.104 321.5,-849.104"/>
</g>
<!-- maxpooling_a1 -->
<g id="node3" class="node"><title>maxpooling_a1</title>
<polygon fill="none" stroke="black" points="368.5,-767 267.5,-767 267.5,-731 368.5,-731 368.5,-767"/>
<text text-anchor="middle" x="318" y="-745.3" font-family="Times,serif" font-size="14.00">maxpooling_a1</text>
</g>
<!-- activation_a1&#45;&gt;maxpooling_a1 -->
<g id="edge2" class="edge"><title>activation_a1&#45;&gt;maxpooling_a1</title>
<path fill="none" stroke="black" d="M318,-802.697C318,-794.983 318,-785.712 318,-777.112"/>
<polygon fill="black" stroke="black" points="321.5,-777.104 318,-767.104 314.5,-777.104 321.5,-777.104"/>
</g>
<!-- convolutional_a2 -->
<g id="node4" class="node"><title>convolutional_a2</title>
<polygon fill="none" stroke="black" points="373,-695 263,-695 263,-659 373,-659 373,-695"/>
<text text-anchor="middle" x="318" y="-673.3" font-family="Times,serif" font-size="14.00">convolutional_a2</text>
</g>
<!-- maxpooling_a1&#45;&gt;convolutional_a2 -->
<g id="edge3" class="edge"><title>maxpooling_a1&#45;&gt;convolutional_a2</title>
<path fill="none" stroke="black" d="M318,-730.697C318,-722.983 318,-713.712 318,-705.112"/>
<polygon fill="black" stroke="black" points="321.5,-705.104 318,-695.104 314.5,-705.104 321.5,-705.104"/>
</g>
<!-- activation_a2 -->
<g id="node5" class="node"><title>activation_a2</title>
<polygon fill="none" stroke="black" points="362.5,-623 273.5,-623 273.5,-587 362.5,-587 362.5,-623"/>
<text text-anchor="middle" x="318" y="-601.3" font-family="Times,serif" font-size="14.00">activation_a2</text>
</g>
<!-- convolutional_a2&#45;&gt;activation_a2 -->
<g id="edge4" class="edge"><title>convolutional_a2&#45;&gt;activation_a2</title>
<path fill="none" stroke="black" d="M318,-658.697C318,-650.983 318,-641.712 318,-633.112"/>
<polygon fill="black" stroke="black" points="321.5,-633.104 318,-623.104 314.5,-633.104 321.5,-633.104"/>
</g>
<!-- maxpooling_a2 -->
<g id="node6" class="node"><title>maxpooling_a2</title>
<polygon fill="none" stroke="black" points="368.5,-551 267.5,-551 267.5,-515 368.5,-515 368.5,-551"/>
<text text-anchor="middle" x="318" y="-529.3" font-family="Times,serif" font-size="14.00">maxpooling_a2</text>
</g>
<!-- activation_a2&#45;&gt;maxpooling_a2 -->
<g id="edge5" class="edge"><title>activation_a2&#45;&gt;maxpooling_a2</title>
<path fill="none" stroke="black" d="M318,-586.697C318,-578.983 318,-569.712 318,-561.112"/>
<polygon fill="black" stroke="black" points="321.5,-561.104 318,-551.104 314.5,-561.104 321.5,-561.104"/>
</g>
<!-- flatten_a1 -->
<g id="node7" class="node"><title>flatten_a1</title>
<polygon fill="none" stroke="black" points="353.5,-479 282.5,-479 282.5,-443 353.5,-443 353.5,-479"/>
<text text-anchor="middle" x="318" y="-457.3" font-family="Times,serif" font-size="14.00">flatten_a1</text>
</g>
<!-- maxpooling_a2&#45;&gt;flatten_a1 -->
<g id="edge6" class="edge"><title>maxpooling_a2&#45;&gt;flatten_a1</title>
<path fill="none" stroke="black" d="M318,-514.697C318,-506.983 318,-497.712 318,-489.112"/>
<polygon fill="black" stroke="black" points="321.5,-489.104 318,-479.104 314.5,-489.104 321.5,-489.104"/>
</g>
<!-- dense_a1 -->
<g id="node8" class="node"><title>dense_a1</title>
<polygon fill="none" stroke="black" points="351.5,-407 284.5,-407 284.5,-371 351.5,-371 351.5,-407"/>
<text text-anchor="middle" x="318" y="-385.3" font-family="Times,serif" font-size="14.00">dense_a1</text>
</g>
<!-- flatten_a1&#45;&gt;dense_a1 -->
<g id="edge7" class="edge"><title>flatten_a1&#45;&gt;dense_a1</title>
<path fill="none" stroke="black" d="M318,-442.697C318,-434.983 318,-425.712 318,-417.112"/>
<polygon fill="black" stroke="black" points="321.5,-417.104 318,-407.104 314.5,-417.104 321.5,-417.104"/>
</g>
<!-- activation_a3 -->
<g id="node9" class="node"><title>activation_a3</title>
<polygon fill="none" stroke="black" points="362.5,-335 273.5,-335 273.5,-299 362.5,-299 362.5,-335"/>
<text text-anchor="middle" x="318" y="-313.3" font-family="Times,serif" font-size="14.00">activation_a3</text>
</g>
<!-- dense_a1&#45;&gt;activation_a3 -->
<g id="edge8" class="edge"><title>dense_a1&#45;&gt;activation_a3</title>
<path fill="none" stroke="black" d="M318,-370.697C318,-362.983 318,-353.712 318,-345.112"/>
<polygon fill="black" stroke="black" points="321.5,-345.104 318,-335.104 314.5,-345.104 321.5,-345.104"/>
</g>
<!-- dense_a2 -->
<g id="node10" class="node"><title>dense_a2</title>
<polygon fill="none" stroke="black" points="351.5,-263 284.5,-263 284.5,-227 351.5,-227 351.5,-263"/>
<text text-anchor="middle" x="318" y="-241.3" font-family="Times,serif" font-size="14.00">dense_a2</text>
</g>
<!-- activation_a3&#45;&gt;dense_a2 -->
<g id="edge9" class="edge"><title>activation_a3&#45;&gt;dense_a2</title>
<path fill="none" stroke="black" d="M318,-298.697C318,-290.983 318,-281.712 318,-273.112"/>
<polygon fill="black" stroke="black" points="321.5,-273.104 318,-263.104 314.5,-273.104 321.5,-273.104"/>
</g>
<!-- softmax_a1 -->
<g id="node11" class="node"><title>softmax_a1</title>
<polygon fill="none" stroke="black" points="358,-191 278,-191 278,-155 358,-155 358,-191"/>
<text text-anchor="middle" x="318" y="-169.3" font-family="Times,serif" font-size="14.00">softmax_a1</text>
</g>
<!-- dense_a2&#45;&gt;softmax_a1 -->
<g id="edge10" class="edge"><title>dense_a2&#45;&gt;softmax_a1</title>
<path fill="none" stroke="black" d="M318,-226.697C318,-218.983 318,-209.712 318,-201.112"/>
<polygon fill="black" stroke="black" points="321.5,-201.104 318,-191.104 314.5,-201.104 321.5,-201.104"/>
</g>
<!-- absolute quadratic loss -->
<g id="node12" class="node"><title>absolute quadratic loss</title>
<ellipse fill="none" stroke="black" cx="107" cy="-90" rx="90.9839" ry="18"/>
<text text-anchor="middle" x="107" y="-86.3" font-family="Times,serif" font-size="14.00">absolute quadratic loss</text>
</g>
<!-- softmax_a1&#45;&gt;absolute quadratic loss -->
<g id="edge12" class="edge"><title>softmax_a1&#45;&gt;absolute quadratic loss</title>
<path fill="none" stroke="black" d="M277.798,-161.164C257.279,-155.269 232.057,-147.462 210,-139 189.043,-130.96 166.369,-120.585 147.643,-111.539"/>
<polygon fill="black" stroke="black" points="149.04,-108.326 138.518,-107.086 145.97,-114.617 149.04,-108.326"/>
</g>
<!-- Laplacian Eigenmap loss -->
<g id="node13" class="node"><title>Laplacian Eigenmap loss</title>
<ellipse fill="none" stroke="black" cx="532" cy="-90" rx="100.182" ry="18"/>
<text text-anchor="middle" x="532" y="-86.3" font-family="Times,serif" font-size="14.00">Laplacian Eigenmap loss</text>
</g>
<!-- softmax_a1&#45;&gt;Laplacian Eigenmap loss -->
<g id="edge13" class="edge"><title>softmax_a1&#45;&gt;Laplacian Eigenmap loss</title>
<path fill="none" stroke="black" d="M358.241,-160.489C377.937,-154.567 401.895,-146.936 423,-139 445.055,-130.707 469.072,-120.286 488.935,-111.275"/>
<polygon fill="black" stroke="black" points="490.397,-114.455 498.036,-107.114 487.486,-108.089 490.397,-114.455"/>
</g>
<!-- S3 Vector Machine loss -->
<g id="node14" class="node"><title>S3 Vector Machine loss</title>
<ellipse fill="none" stroke="black" cx="318" cy="-90" rx="96.3833" ry="18"/>
<text text-anchor="middle" x="318" y="-86.3" font-family="Times,serif" font-size="14.00">S3 Vector Machine loss</text>
</g>
<!-- softmax_a1&#45;&gt;S3 Vector Machine loss -->
<g id="edge14" class="edge"><title>softmax_a1&#45;&gt;S3 Vector Machine loss</title>
<path fill="none" stroke="black" d="M318,-154.822C318,-144.19 318,-130.306 318,-118.204"/>
<polygon fill="black" stroke="black" points="321.5,-118.153 318,-108.153 314.5,-118.153 321.5,-118.153"/>
</g>
<!-- loss -->
<g id="node16" class="node"><title>loss</title>
<polygon fill="none" stroke="black" points="345,-36 291,-36 291,-0 345,-0 345,-36"/>
<text text-anchor="middle" x="318" y="-14.3" font-family="Times,serif" font-size="14.00">loss</text>
</g>
<!-- absolute quadratic loss&#45;&gt;loss -->
<g id="edge17" class="edge"><title>absolute quadratic loss&#45;&gt;loss</title>
<path fill="none" stroke="black" d="M151.49,-74.2403C190.061,-61.4444 245.208,-43.1491 281.302,-31.1748"/>
<polygon fill="black" stroke="black" points="282.558,-34.4457 290.947,-27.9749 280.354,-27.8018 282.558,-34.4457"/>
</g>
<!-- Laplacian Eigenmap loss&#45;&gt;loss -->
<g id="edge15" class="edge"><title>Laplacian Eigenmap loss&#45;&gt;loss</title>
<path fill="none" stroke="black" d="M486.092,-73.9832C446.913,-61.1679 391.302,-42.9772 354.944,-31.0845"/>
<polygon fill="black" stroke="black" points="355.822,-27.6893 345.23,-27.9069 353.646,-34.3425 355.822,-27.6893"/>
</g>
<!-- S3 Vector Machine loss&#45;&gt;loss -->
<g id="edge16" class="edge"><title>S3 Vector Machine loss&#45;&gt;loss</title>
<path fill="none" stroke="black" d="M318,-71.6966C318,-63.9827 318,-54.7125 318,-46.1124"/>
<polygon fill="black" stroke="black" points="321.5,-46.1043 318,-36.1043 314.5,-46.1044 321.5,-46.1043"/>
</g>
<!-- input -->
<g id="node15" class="node"><title>input</title>
<polygon fill="none" stroke="black" points="345,-986 291,-986 291,-950 345,-950 345,-986"/>
<text text-anchor="middle" x="318" y="-964.3" font-family="Times,serif" font-size="14.00">input</text>
</g>
<!-- input&#45;&gt;convolutional_a1 -->
<g id="edge11" class="edge"><title>input&#45;&gt;convolutional_a1</title>
<path fill="none" stroke="black" d="M318,-949.7C318,-941.245 318,-930.869 318,-921.373"/>
<polygon fill="black" stroke="black" points="321.5,-921.176 318,-911.176 314.5,-921.176 321.5,-921.176"/>
</g>
</g>
</svg>
