<?xml version="1.0" encoding="UTF-8" standalone="no"?>
<!DOCTYPE svg PUBLIC "-//W3C//DTD SVG 1.1//EN"
 "http://www.w3.org/Graphics/SVG/1.1/DTD/svg11.dtd">
<!-- Generated by graphviz version 2.38.0 (20140413.2041)
 -->
<!-- Title: G Pages: 1 -->
<svg width="656pt" height="997pt"
 viewBox="0.00 0.00 656.00 997.00" xmlns="http://www.w3.org/2000/svg" xmlns:xlink="http://www.w3.org/1999/xlink">
<g id="graph0" class="graph" transform="scale(1 1) rotate(0) translate(4 993)">
<title>G</title>
<polygon fill="white" stroke="none" points="-4,4 -4,-993 652,-993 652,4 -4,4"/>
<g id="clust1" class="cluster"><title>cluster_embedding</title>
<polygon fill="none" stroke="red" points="136,-726 136,-945 262,-945 262,-726 136,-726"/>
<text text-anchor="middle" x="199" y="-929.8" font-family="Times,serif" font-size="14.00">embedding space</text>
</g>
<g id="clust2" class="cluster"><title>cluster_supervised</title>
<polygon fill="none" stroke="red" points="8,-64 8,-718 206,-718 206,-64 8,-64"/>
<text text-anchor="middle" x="107" y="-702.8" font-family="Times,serif" font-size="14.00">labeled data</text>
</g>
<g id="clust3" class="cluster"><title>cluster_unsupervised</title>
<polygon fill="none" stroke="red" points="214,-64 214,-355 640,-355 640,-64 214,-64"/>
<text text-anchor="middle" x="427" y="-339.8" font-family="Times,serif" font-size="14.00">unlabeled data: neighbor and random</text>
</g>
<!-- convolutional_a1 -->
<g id="node1" class="node"><title>convolutional_a1</title>
<polygon fill="none" stroke="black" points="254,-914 144,-914 144,-878 254,-878 254,-914"/>
<text text-anchor="middle" x="199" y="-892.3" font-family="Times,serif" font-size="14.00">convolutional_a1</text>
</g>
<!-- activation_a1 -->
<g id="node2" class="node"><title>activation_a1</title>
<polygon fill="none" stroke="black" points="243.5,-842 154.5,-842 154.5,-806 243.5,-806 243.5,-842"/>
<text text-anchor="middle" x="199" y="-820.3" font-family="Times,serif" font-size="14.00">activation_a1</text>
</g>
<!-- convolutional_a1&#45;&gt;activation_a1 -->
<g id="edge1" class="edge"><title>convolutional_a1&#45;&gt;activation_a1</title>
<path fill="none" stroke="black" d="M199,-877.697C199,-869.983 199,-860.712 199,-852.112"/>
<polygon fill="black" stroke="black" points="202.5,-852.104 199,-842.104 195.5,-852.104 202.5,-852.104"/>
</g>
<!-- maxpooling_a1 -->
<g id="node3" class="node"><title>maxpooling_a1</title>
<polygon fill="none" stroke="black" points="249.5,-770 148.5,-770 148.5,-734 249.5,-734 249.5,-770"/>
<text text-anchor="middle" x="199" y="-748.3" font-family="Times,serif" font-size="14.00">maxpooling_a1</text>
</g>
<!-- activation_a1&#45;&gt;maxpooling_a1 -->
<g id="edge2" class="edge"><title>activation_a1&#45;&gt;maxpooling_a1</title>
<path fill="none" stroke="black" d="M199,-805.697C199,-797.983 199,-788.712 199,-780.112"/>
<polygon fill="black" stroke="black" points="202.5,-780.104 199,-770.104 195.5,-780.104 202.5,-780.104"/>
</g>
<!-- convolutional_b1 -->
<g id="node4" class="node"><title>convolutional_b1</title>
<polygon fill="none" stroke="black" points="196.5,-687 85.5,-687 85.5,-651 196.5,-651 196.5,-687"/>
<text text-anchor="middle" x="141" y="-665.3" font-family="Times,serif" font-size="14.00">convolutional_b1</text>
</g>
<!-- maxpooling_a1&#45;&gt;convolutional_b1 -->
<g id="edge16" class="edge"><title>maxpooling_a1&#45;&gt;convolutional_b1</title>
<path fill="none" stroke="black" d="M186.7,-733.822C178.702,-722.653 168.135,-707.895 159.176,-695.384"/>
<polygon fill="black" stroke="black" points="161.95,-693.246 153.283,-687.153 156.259,-697.321 161.95,-693.246"/>
</g>
<!-- flatten_c1 -->
<g id="node13" class="node"><title>flatten_c1</title>
<polygon fill="none" stroke="black" points="325.5,-324 254.5,-324 254.5,-288 325.5,-288 325.5,-324"/>
<text text-anchor="middle" x="290" y="-302.3" font-family="Times,serif" font-size="14.00">flatten_c1</text>
</g>
<!-- maxpooling_a1&#45;&gt;flatten_c1 -->
<g id="edge17" class="edge"><title>maxpooling_a1&#45;&gt;flatten_c1</title>
<path fill="none" stroke="black" d="M210.183,-733.904C227.037,-706.441 257,-650.269 257,-598 257,-598 257,-598 257,-452 257,-409.922 270.376,-362.649 280.096,-333.852"/>
<polygon fill="black" stroke="black" points="283.501,-334.717 283.48,-324.122 276.889,-332.417 283.501,-334.717"/>
</g>
<!-- activation_b1 -->
<g id="node5" class="node"><title>activation_b1</title>
<polygon fill="none" stroke="black" points="177,-615 87,-615 87,-579 177,-579 177,-615"/>
<text text-anchor="middle" x="132" y="-593.3" font-family="Times,serif" font-size="14.00">activation_b1</text>
</g>
<!-- convolutional_b1&#45;&gt;activation_b1 -->
<g id="edge3" class="edge"><title>convolutional_b1&#45;&gt;activation_b1</title>
<path fill="none" stroke="black" d="M138.775,-650.697C137.783,-642.983 136.592,-633.712 135.486,-625.112"/>
<polygon fill="black" stroke="black" points="138.946,-624.576 134.199,-615.104 132.003,-625.469 138.946,-624.576"/>
</g>
<!-- maxpooling_b1 -->
<g id="node6" class="node"><title>maxpooling_b1</title>
<polygon fill="none" stroke="black" points="166,-543 64,-543 64,-507 166,-507 166,-543"/>
<text text-anchor="middle" x="115" y="-521.3" font-family="Times,serif" font-size="14.00">maxpooling_b1</text>
</g>
<!-- activation_b1&#45;&gt;maxpooling_b1 -->
<g id="edge4" class="edge"><title>activation_b1&#45;&gt;maxpooling_b1</title>
<path fill="none" stroke="black" d="M127.798,-578.697C125.904,-570.898 123.623,-561.509 121.516,-552.829"/>
<polygon fill="black" stroke="black" points="124.915,-551.996 119.154,-543.104 118.113,-553.648 124.915,-551.996"/>
</g>
<!-- flatten_b1 -->
<g id="node7" class="node"><title>flatten_b1</title>
<polygon fill="none" stroke="black" points="149.5,-471 78.5,-471 78.5,-435 149.5,-435 149.5,-471"/>
<text text-anchor="middle" x="114" y="-449.3" font-family="Times,serif" font-size="14.00">flatten_b1</text>
</g>
<!-- maxpooling_b1&#45;&gt;flatten_b1 -->
<g id="edge5" class="edge"><title>maxpooling_b1&#45;&gt;flatten_b1</title>
<path fill="none" stroke="black" d="M114.753,-506.697C114.643,-498.983 114.51,-489.712 114.387,-481.112"/>
<polygon fill="black" stroke="black" points="117.887,-481.053 114.244,-471.104 110.888,-481.153 117.887,-481.053"/>
</g>
<!-- dense_b1 -->
<g id="node8" class="node"><title>dense_b1</title>
<polygon fill="none" stroke="black" points="144,-399 76,-399 76,-363 144,-363 144,-399"/>
<text text-anchor="middle" x="110" y="-377.3" font-family="Times,serif" font-size="14.00">dense_b1</text>
</g>
<!-- flatten_b1&#45;&gt;dense_b1 -->
<g id="edge6" class="edge"><title>flatten_b1&#45;&gt;dense_b1</title>
<path fill="none" stroke="black" d="M113.011,-434.697C112.57,-426.983 112.041,-417.712 111.549,-409.112"/>
<polygon fill="black" stroke="black" points="115.042,-408.888 110.977,-399.104 108.054,-409.288 115.042,-408.888"/>
</g>
<!-- activation_b2 -->
<g id="node9" class="node"><title>activation_b2</title>
<polygon fill="none" stroke="black" points="153,-324 63,-324 63,-288 153,-288 153,-324"/>
<text text-anchor="middle" x="108" y="-302.3" font-family="Times,serif" font-size="14.00">activation_b2</text>
</g>
<!-- dense_b1&#45;&gt;activation_b2 -->
<g id="edge7" class="edge"><title>dense_b1&#45;&gt;activation_b2</title>
<path fill="none" stroke="black" d="M109.526,-362.7C109.294,-354.245 109.01,-343.869 108.75,-334.373"/>
<polygon fill="black" stroke="black" points="112.243,-334.076 108.471,-324.176 105.246,-334.268 112.243,-334.076"/>
</g>
<!-- dense_b2 -->
<g id="node10" class="node"><title>dense_b2</title>
<polygon fill="none" stroke="black" points="142,-252 74,-252 74,-216 142,-216 142,-252"/>
<text text-anchor="middle" x="108" y="-230.3" font-family="Times,serif" font-size="14.00">dense_b2</text>
</g>
<!-- activation_b2&#45;&gt;dense_b2 -->
<g id="edge8" class="edge"><title>activation_b2&#45;&gt;dense_b2</title>
<path fill="none" stroke="black" d="M108,-287.697C108,-279.983 108,-270.712 108,-262.112"/>
<polygon fill="black" stroke="black" points="111.5,-262.104 108,-252.104 104.5,-262.104 111.5,-262.104"/>
</g>
<!-- softmax_b1 -->
<g id="node11" class="node"><title>softmax_b1</title>
<polygon fill="none" stroke="black" points="147.5,-180 66.5,-180 66.5,-144 147.5,-144 147.5,-180"/>
<text text-anchor="middle" x="107" y="-158.3" font-family="Times,serif" font-size="14.00">softmax_b1</text>
</g>
<!-- dense_b2&#45;&gt;softmax_b1 -->
<g id="edge9" class="edge"><title>dense_b2&#45;&gt;softmax_b1</title>
<path fill="none" stroke="black" d="M107.753,-215.697C107.643,-207.983 107.51,-198.712 107.387,-190.112"/>
<polygon fill="black" stroke="black" points="110.887,-190.053 107.244,-180.104 103.888,-190.153 110.887,-190.053"/>
</g>
<!-- absolute quadratic loss -->
<g id="node12" class="node"><title>absolute quadratic loss</title>
<ellipse fill="none" stroke="black" cx="107" cy="-90" rx="90.9839" ry="18"/>
<text text-anchor="middle" x="107" y="-86.3" font-family="Times,serif" font-size="14.00">absolute quadratic loss</text>
</g>
<!-- softmax_b1&#45;&gt;absolute quadratic loss -->
<g id="edge10" class="edge"><title>softmax_b1&#45;&gt;absolute quadratic loss</title>
<path fill="none" stroke="black" d="M107,-143.697C107,-135.983 107,-126.712 107,-118.112"/>
<polygon fill="black" stroke="black" points="110.5,-118.104 107,-108.104 103.5,-118.104 110.5,-118.104"/>
</g>
<!-- loss -->
<g id="node19" class="node"><title>loss</title>
<polygon fill="none" stroke="black" points="349,-36 295,-36 295,-0 349,-0 349,-36"/>
<text text-anchor="middle" x="322" y="-14.3" font-family="Times,serif" font-size="14.00">loss</text>
</g>
<!-- absolute quadratic loss&#45;&gt;loss -->
<g id="edge20" class="edge"><title>absolute quadratic loss&#45;&gt;loss</title>
<path fill="none" stroke="black" d="M152.071,-74.3257C191.577,-61.4633 248.297,-42.9962 285.145,-30.9993"/>
<polygon fill="black" stroke="black" points="286.555,-34.2211 294.98,-27.7972 284.388,-27.565 286.555,-34.2211"/>
</g>
<!-- dense_c1 -->
<g id="node14" class="node"><title>dense_c1</title>
<polygon fill="none" stroke="black" points="339.5,-252 272.5,-252 272.5,-216 339.5,-216 339.5,-252"/>
<text text-anchor="middle" x="306" y="-230.3" font-family="Times,serif" font-size="14.00">dense_c1</text>
</g>
<!-- flatten_c1&#45;&gt;dense_c1 -->
<g id="edge11" class="edge"><title>flatten_c1&#45;&gt;dense_c1</title>
<path fill="none" stroke="black" d="M293.955,-287.697C295.718,-279.983 297.837,-270.712 299.803,-262.112"/>
<polygon fill="black" stroke="black" points="303.274,-262.633 302.09,-252.104 296.45,-261.073 303.274,-262.633"/>
</g>
<!-- softmax_c1 -->
<g id="node15" class="node"><title>softmax_c1</title>
<polygon fill="none" stroke="black" points="362,-180 282,-180 282,-144 362,-144 362,-180"/>
<text text-anchor="middle" x="322" y="-158.3" font-family="Times,serif" font-size="14.00">softmax_c1</text>
</g>
<!-- dense_c1&#45;&gt;softmax_c1 -->
<g id="edge12" class="edge"><title>dense_c1&#45;&gt;softmax_c1</title>
<path fill="none" stroke="black" d="M309.955,-215.697C311.718,-207.983 313.837,-198.712 315.803,-190.112"/>
<polygon fill="black" stroke="black" points="319.274,-190.633 318.09,-180.104 312.45,-189.073 319.274,-190.633"/>
</g>
<!-- Laplacian Eigenmap loss -->
<g id="node16" class="node"><title>Laplacian Eigenmap loss</title>
<ellipse fill="none" stroke="black" cx="322" cy="-90" rx="100.182" ry="18"/>
<text text-anchor="middle" x="322" y="-86.3" font-family="Times,serif" font-size="14.00">Laplacian Eigenmap loss</text>
</g>
<!-- softmax_c1&#45;&gt;Laplacian Eigenmap loss -->
<g id="edge13" class="edge"><title>softmax_c1&#45;&gt;Laplacian Eigenmap loss</title>
<path fill="none" stroke="black" d="M322,-143.697C322,-135.983 322,-126.712 322,-118.112"/>
<polygon fill="black" stroke="black" points="325.5,-118.104 322,-108.104 318.5,-118.104 325.5,-118.104"/>
</g>
<!-- S3 Vector Machine loss -->
<g id="node17" class="node"><title>S3 Vector Machine loss</title>
<ellipse fill="none" stroke="black" cx="536" cy="-90" rx="96.3833" ry="18"/>
<text text-anchor="middle" x="536" y="-86.3" font-family="Times,serif" font-size="14.00">S3 Vector Machine loss</text>
</g>
<!-- softmax_c1&#45;&gt;S3 Vector Machine loss -->
<g id="edge14" class="edge"><title>softmax_c1&#45;&gt;S3 Vector Machine loss</title>
<path fill="none" stroke="black" d="M362.001,-147.916C395.427,-136.982 443.451,-121.273 480.581,-109.128"/>
<polygon fill="black" stroke="black" points="481.84,-112.398 490.256,-105.963 479.664,-105.745 481.84,-112.398"/>
</g>
<!-- Laplacian Eigenmap loss&#45;&gt;loss -->
<g id="edge18" class="edge"><title>Laplacian Eigenmap loss&#45;&gt;loss</title>
<path fill="none" stroke="black" d="M322,-71.6966C322,-63.9827 322,-54.7125 322,-46.1124"/>
<polygon fill="black" stroke="black" points="325.5,-46.1043 322,-36.1043 318.5,-46.1044 325.5,-46.1043"/>
</g>
<!-- S3 Vector Machine loss&#45;&gt;loss -->
<g id="edge19" class="edge"><title>S3 Vector Machine loss&#45;&gt;loss</title>
<path fill="none" stroke="black" d="M490.354,-74.0691C451.195,-61.26 395.477,-43.0345 359.036,-31.1146"/>
<polygon fill="black" stroke="black" points="359.892,-27.712 349.299,-27.9296 357.715,-34.3651 359.892,-27.712"/>
</g>
<!-- input -->
<g id="node18" class="node"><title>input</title>
<polygon fill="none" stroke="black" points="226,-989 172,-989 172,-953 226,-953 226,-989"/>
<text text-anchor="middle" x="199" y="-967.3" font-family="Times,serif" font-size="14.00">input</text>
</g>
<!-- input&#45;&gt;convolutional_a1 -->
<g id="edge15" class="edge"><title>input&#45;&gt;convolutional_a1</title>
<path fill="none" stroke="black" d="M199,-952.7C199,-944.245 199,-933.869 199,-924.373"/>
<polygon fill="black" stroke="black" points="202.5,-924.176 199,-914.176 195.5,-924.176 202.5,-924.176"/>
</g>
</g>
</svg>
